<svg width="109" height="15" fill="none" xmlns="http://www.w3.org/2000/svg"><path fill-rule="evenodd" clip-rule="evenodd" d="M47.025 9.271h7.106l-3.758-5.99-6.896 10.83h-3.14l8.39-13.009A1.988 1.988 0 0150.374.26c.652 0 1.26.307 1.613.821l8.422 13.03h-3.138l-1.481-2.419h-7.196l-1.57-2.42zm32.605 2.42V.39h-2.663v12.406c0 .34.132.668.386.92.255.252.597.394.973.394h12.147l1.57-2.42H79.63zM40.25 5.033c0 2.563-2.1 4.632-4.687 4.632h-1.216l5.35 4.446h-3.869l-7.951-6.865 7.509.01a2.225 2.225 0 002.233-2.222 2.226 2.226 0 00-2.233-2.223h-8.814v11.3H23.91V.391h11.653c2.586 0 4.686 2.08 4.686 4.642zM7.518 14.111c-3.823 0-6.926-3.066-6.926-6.855C.593 3.468 3.696.391 7.519.391h8.05c3.823 0 6.924 3.077 6.924 6.865 0 3.789-3.1 6.855-6.925 6.855h-8.05zm12.353-6.855c0 2.453-2.006 4.435-4.482 4.435H7.696c-2.476 0-4.483-1.982-4.483-4.435 0-2.452 2.007-4.445 4.483-4.445h7.692c2.477 0 4.483 1.993 4.483 4.445zm46.097 6.855c-3.824 0-6.93-3.066-6.93-6.855 0-3.788 3.106-6.865 6.93-6.865h9.56l-1.558 2.42h-7.825c-2.476 0-4.488 1.993-4.488 4.445 0 2.453 2.012 4.435 4.488 4.435h9.605l-1.57 2.42h-8.21zm28.262-5.65a4.47 4.47 0 004.31 3.23h9.605l-1.569 2.42h-8.212c-3.825 0-6.93-3.066-6.93-6.855 0-3.789 3.105-6.866 6.93-6.866h9.571l-1.58 2.42h-7.814a4.482 4.482 0 00-4.31 3.23h12.953l-1.57 2.42H94.231z" fill="#fff"/></svg>